<svg class="animated" id="freepik_stories-calendar" xmlns="http://www.w3.org/2000/svg" viewBox="0 0 500 500" version="1.1" xmlns:xlink="http://www.w3.org/1999/xlink" xmlnsSvgjs="http://svgjs.com/svgjs"><style>svg#freepik_stories-calendar:not(.animated) .animable {opacity: 0;}svg#freepik_stories-calendar.animated #freepik--Calendar--inject-4 {animation: 1.5s Infinite  linear floating;animation-delay: 0s;}            @keyframes floating {                0% {                    opacity: 1;                    transform: translateY(0px);                }                50% {                    transform: translateY(-10px);                }                100% {                    opacity: 1;                    transform: translateY(0px);                }            }        </style><g id="freepik--background-complete--inject-4" class="animable" style="transform-origin: 250px 226.395px;"><rect y="382.4" width="500" height="0.25" style="fill: rgb(250, 250, 250); transform-origin: 250px 382.525px;" id="elwzk8gy1fu6" class="animable"></rect><rect x="398.39" y="393.28" width="24.83" height="0.25" style="fill: rgb(224, 224, 224); transform-origin: 410.805px 393.405px;" id="elpcd6va84num" class="animable"></rect><rect x="430.56" y="393.15" width="8.39" height="0.25" style="fill: rgb(224, 224, 224); transform-origin: 434.755px 393.275px;" id="eljs66d5o4oy" class="animable"></rect><rect x="280.04" y="394.83" width="51.99" height="0.25" style="fill: rgb(224, 224, 224); transform-origin: 306.035px 394.955px;" id="ela69f29trp6p" class="animable"></rect><rect x="260.02" y="397.54" width="7.75" height="0.25" style="fill: rgb(224, 224, 224); transform-origin: 263.895px 397.665px;" id="elos6p0w6m2u" class="animable"></rect><rect x="98.59" y="389.63" width="13.36" height="0.25" style="fill: rgb(224, 224, 224); transform-origin: 105.27px 389.755px;" id="elk8oi0ybuz5o" class="animable"></rect><rect x="117.5" y="389.63" width="67.76" height="0.25" style="fill: rgb(224, 224, 224); transform-origin: 151.38px 389.755px;" id="el5agy1bxk3lj" class="animable"></rect><rect x="80.36" y="395.67" width="47.14" height="0.25" style="fill: rgb(224, 224, 224); transform-origin: 103.93px 395.795px;" id="elrbjdjp55og" class="animable"></rect><path d="M237,337.8H43.91a5.71,5.71,0,0,1-5.7-5.71V60.66A5.71,5.71,0,0,1,43.91,55H237a5.71,5.71,0,0,1,5.71,5.71V332.09A5.71,5.71,0,0,1,237,337.8ZM43.91,55.2a5.46,5.46,0,0,0-5.45,5.46V332.09a5.46,5.46,0,0,0,5.45,5.46H237a5.47,5.47,0,0,0,5.46-5.46V60.66A5.47,5.47,0,0,0,237,55.2Z" style="fill: rgb(224, 224, 224); transform-origin: 140.46px 196.4px;" id="elft29xmyazko" class="animable"></path><path d="M453.31,337.8H260.21a5.72,5.72,0,0,1-5.71-5.71V60.66A5.72,5.72,0,0,1,260.21,55h193.1A5.71,5.71,0,0,1,459,60.66V332.09A5.71,5.71,0,0,1,453.31,337.8ZM260.21,55.2a5.47,5.47,0,0,0-5.46,5.46V332.09a5.47,5.47,0,0,0,5.46,5.46h193.1a5.47,5.47,0,0,0,5.46-5.46V60.66a5.47,5.47,0,0,0-5.46-5.46Z" style="fill: rgb(224, 224, 224); transform-origin: 356.75px 196.4px;" id="ellkr78mdneh" class="animable"></path><g id="eln1tkmr9hrvh"><rect x="341.75" y="318.28" width="35.33" height="64.12" style="fill: rgb(224, 224, 224); transform-origin: 359.415px 350.34px; transform: rotate(180deg);" class="animable"></rect></g><rect x="377.08" y="318.28" width="42.15" height="64.12" style="fill: rgb(235, 235, 235); transform-origin: 398.155px 350.34px;" id="elf8l7k0uiok" class="animable"></rect><g id="el0fx514m60rx7"><rect x="341.75" y="323.7" width="77.85" height="2.9" style="fill: rgb(224, 224, 224); opacity: 0.7; mix-blend-mode: multiply; transform-origin: 380.675px 325.15px; transform: rotate(180deg);" class="animable"></rect></g><g id="eljd02eofuc4n"><rect x="339.8" y="311.57" width="37.28" height="13.36" style="fill: rgb(224, 224, 224); transform-origin: 358.44px 318.25px; transform: rotate(180deg);" class="animable"></rect></g><rect x="377.08" y="311.57" width="44.1" height="13.36" style="fill: rgb(235, 235, 235); transform-origin: 399.13px 318.25px;" id="elez25qgl9z5m" class="animable"></rect><rect x="75.13" y="73.99" width="118.93" height="141.9" style="fill: rgb(224, 224, 224); transform-origin: 134.595px 144.94px;" id="elf4uz57ep7di" class="animable"></rect><rect x="77.68" y="73.99" width="121.83" height="141.9" style="fill: rgb(235, 235, 235); transform-origin: 138.595px 144.94px;" id="elwadluxjmzop" class="animable"></rect><rect x="75.13" y="215.89" width="118.93" height="10.11" style="fill: rgb(224, 224, 224); transform-origin: 134.595px 220.945px;" id="elddumwcmtjou" class="animable"></rect><rect x="86.74" y="215.89" width="121.83" height="10.11" style="fill: rgb(235, 235, 235); transform-origin: 147.655px 220.945px;" id="el2gyccywz6i4" class="animable"></rect><g id="el82eoshj0uoq"><rect x="75.26" y="91.64" width="126.66" height="106.59" style="fill: rgb(245, 245, 245); transform-origin: 138.59px 144.935px; transform: rotate(90deg);" class="animable"></rect></g><polygon points="98.38 208.27 143.09 81.61 164.19 81.61 119.49 208.27 98.38 208.27" style="fill: rgb(250, 250, 250); transform-origin: 131.285px 144.94px;" id="elh7f4adm9wj" class="animable"></polygon><path d="M88.82,165.3a.55.55,0,0,1-.54-.55V86.56a.54.54,0,0,1,.54-.54.55.55,0,0,1,.55.54v78.19A.55.55,0,0,1,88.82,165.3Z" style="fill: rgb(235, 235, 235); transform-origin: 88.825px 125.66px;" id="el1qckedm9b3ni" class="animable"></path><polygon points="124.02 208.27 168.73 81.61 176.96 81.61 132.25 208.27 124.02 208.27" style="fill: rgb(250, 250, 250); transform-origin: 150.49px 144.94px;" id="elk40033h2aj" class="animable"></polygon><g id="elgypw3oru3g"><rect x="128.07" y="144.46" width="126.66" height="0.97" style="fill: rgb(224, 224, 224); transform-origin: 191.4px 144.945px; transform: rotate(90deg);" class="animable"></rect></g><polygon points="201.3 91.35 82.38 91.35 81.68 84.57 200.6 84.57 201.3 91.35" style="fill: rgb(224, 224, 224); transform-origin: 141.49px 87.96px;" id="el02pjyckkadxh" class="animable"></polygon><polygon points="201.3 96.32 82.38 96.32 81.68 89.53 200.6 89.53 201.3 96.32" style="fill: rgb(224, 224, 224); transform-origin: 141.49px 92.925px;" id="el3d2h21qb5fj" class="animable"></polygon><polygon points="201.3 102.28 82.38 102.28 81.68 95.49 200.6 95.49 201.3 102.28" style="fill: rgb(224, 224, 224); transform-origin: 141.49px 98.885px;" id="ell2m3sflbbmq" class="animable"></polygon><polygon points="201.3 108.91 82.38 108.91 81.68 102.13 200.6 102.13 201.3 108.91" style="fill: rgb(224, 224, 224); transform-origin: 141.49px 105.52px;" id="els2b694w3p6" class="animable"></polygon><polygon points="201.3 116.86 82.38 116.86 81.68 110.07 200.6 110.07 201.3 116.86" style="fill: rgb(224, 224, 224); transform-origin: 141.49px 113.465px;" id="elyl4dk6jh35" class="animable"></polygon><polygon points="201.3 125.79 82.38 125.79 81.68 119.01 200.6 119.01 201.3 125.79" style="fill: rgb(224, 224, 224); transform-origin: 141.49px 122.4px;" id="elftwcaeg9mi" class="animable"></polygon><rect x="291.43" y="73.99" width="118.93" height="141.9" style="fill: rgb(224, 224, 224); transform-origin: 350.895px 144.94px;" id="el8boxm8rzok" class="animable"></rect><rect x="293.97" y="73.99" width="121.83" height="141.9" style="fill: rgb(235, 235, 235); transform-origin: 354.885px 144.94px;" id="elp6hy8yu3r28" class="animable"></rect><rect x="291.43" y="215.89" width="118.93" height="10.11" style="fill: rgb(224, 224, 224); transform-origin: 350.895px 220.945px;" id="elhcygphj5149" class="animable"></rect><rect x="303.04" y="215.89" width="121.83" height="10.11" style="fill: rgb(235, 235, 235); transform-origin: 363.955px 220.945px;" id="el3ef3b13gohh" class="animable"></rect><g id="elj3w2hkqy8v"><rect x="291.56" y="91.64" width="126.66" height="106.59" style="fill: rgb(245, 245, 245); transform-origin: 354.89px 144.935px; transform: rotate(90deg);" class="animable"></rect></g><polygon points="314.68 208.27 359.39 81.61 380.49 81.61 335.78 208.27 314.68 208.27" style="fill: rgb(250, 250, 250); transform-origin: 347.585px 144.94px;" id="elgxrxphi45l9" class="animable"></polygon><path d="M305.12,165.3a.55.55,0,0,1-.54-.55V86.56a.54.54,0,0,1,1.08,0v78.19A.55.55,0,0,1,305.12,165.3Z" style="fill: rgb(235, 235, 235); transform-origin: 305.12px 125.66px;" id="elfjamg965vs" class="animable"></path><polygon points="340.32 208.27 385.03 81.61 393.25 81.61 348.55 208.27 340.32 208.27" style="fill: rgb(250, 250, 250); transform-origin: 366.785px 144.94px;" id="elrtx23ixgxdm" class="animable"></polygon><g id="elqiz04m8r3u9"><rect x="344.37" y="144.46" width="126.66" height="0.97" style="fill: rgb(224, 224, 224); transform-origin: 407.7px 144.945px; transform: rotate(90deg);" class="animable"></rect></g><polygon points="417.6 91.35 298.68 91.35 297.97 84.57 416.9 84.57 417.6 91.35" style="fill: rgb(224, 224, 224); transform-origin: 357.785px 87.96px;" id="el5zrq9gvbejk" class="animable"></polygon><polygon points="417.6 96.32 298.68 96.32 297.97 89.53 416.9 89.53 417.6 96.32" style="fill: rgb(224, 224, 224); transform-origin: 357.785px 92.925px;" id="eldennvd52vm8" class="animable"></polygon><polygon points="417.6 102.28 298.68 102.28 297.97 95.49 416.9 95.49 417.6 102.28" style="fill: rgb(224, 224, 224); transform-origin: 357.785px 98.885px;" id="ely7xf8zvjh6m" class="animable"></polygon><polygon points="417.6 108.91 298.68 108.91 297.97 102.13 416.9 102.13 417.6 108.91" style="fill: rgb(224, 224, 224); transform-origin: 357.785px 105.52px;" id="eliabtqei17zm" class="animable"></polygon><polygon points="417.6 116.86 298.68 116.86 297.97 110.07 416.9 110.07 417.6 116.86" style="fill: rgb(224, 224, 224); transform-origin: 357.785px 113.465px;" id="el7b2wek3721i" class="animable"></polygon><polygon points="417.6 125.79 298.68 125.79 297.97 119.01 416.9 119.01 417.6 125.79" style="fill: rgb(224, 224, 224); transform-origin: 357.785px 122.4px;" id="el1ng4g83ghqt" class="animable"></polygon><rect x="294.29" y="292.46" width="23.75" height="89.94" style="fill: rgb(224, 224, 224); transform-origin: 306.165px 337.43px;" id="eloic0elmayej" class="animable"></rect><polygon points="313.52 382.4 318.03 382.4 318.03 371.38 308.79 371.38 313.52 382.4" style="fill: rgb(245, 245, 245); transform-origin: 313.41px 376.89px;" id="ellcn46nzqmy9" class="animable"></polygon><rect x="63.81" y="292.46" width="23.75" height="89.94" style="fill: rgb(224, 224, 224); transform-origin: 75.685px 337.43px;" id="el0twt63rjhel" class="animable"></rect><rect x="83.62" y="292.46" width="234.42" height="83.88" style="fill: rgb(245, 245, 245); transform-origin: 200.83px 334.4px;" id="elfqqp7y0unvt" class="animable"></rect><g id="el6xcejmtn9pj"><rect x="228.48" y="270.51" width="59.9" height="112.2" style="fill: rgb(224, 224, 224); transform-origin: 258.43px 326.61px; transform: rotate(-90deg);" class="animable"></rect></g><g id="elh60dlbctug9"><rect x="113.26" y="270.51" width="59.9" height="112.2" style="fill: rgb(224, 224, 224); transform-origin: 143.21px 326.61px; transform: rotate(-90deg);" class="animable"></rect></g><g id="el52s429mzva8"><rect x="255.1" y="309.79" width="6.67" height="112.2" style="fill: rgb(224, 224, 224); transform-origin: 258.435px 365.89px; transform: rotate(90deg);" class="animable"></rect></g><g id="elqvmikxmt3rj"><rect x="139.88" y="309.79" width="6.67" height="112.2" style="fill: rgb(224, 224, 224); transform-origin: 143.215px 365.89px; transform: rotate(90deg);" class="animable"></rect></g><path d="M182.73,300.24h-79a13,13,0,0,1-9.39-4h97.82A13,13,0,0,1,182.73,300.24Z" style="fill: rgb(245, 245, 245); transform-origin: 143.25px 298.24px;" id="elbspek7eshsm" class="animable"></path><path d="M298.37,300.24h-79a13,13,0,0,1-9.39-4h97.82A12.94,12.94,0,0,1,298.37,300.24Z" style="fill: rgb(245, 245, 245); transform-origin: 258.89px 298.24px;" id="elcnyj14hutfq" class="animable"></path><polygon points="88.13 382.4 83.61 382.4 83.61 371.38 92.85 371.38 88.13 382.4" style="fill: rgb(245, 245, 245); transform-origin: 88.23px 376.89px;" id="elgsgx2ig59x" class="animable"></polygon><g id="elres8lj01kjr"><rect x="229.12" y="237.24" width="26.44" height="55.22" style="fill: rgb(224, 224, 224); opacity: 0.4; mix-blend-mode: multiply; transform-origin: 242.34px 264.85px;" class="animable"></rect></g><polygon points="277.77 292.46 233.02 292.46 228.81 232.83 273.55 232.83 277.77 292.46" style="fill: rgb(224, 224, 224); transform-origin: 253.29px 262.645px;" id="el0n6ofgcsn37b" class="animable"></polygon><polygon points="282.86 292.46 234.29 292.46 230.08 232.83 278.64 232.83 282.86 292.46" style="fill: rgb(245, 245, 245); transform-origin: 256.47px 262.645px;" id="el9hjsyguj4ic" class="animable"></polygon><polygon points="236.54 290.18 232.65 235.11 276.4 235.11 280.3 290.18 236.54 290.18" style="fill: rgb(250, 250, 250); transform-origin: 256.475px 262.645px;" id="el4p16cyi2scq" class="animable"></polygon><polygon points="247.13 277.85 244.98 247.44 265.81 247.44 267.96 277.85 247.13 277.85" style="fill: rgb(245, 245, 245); transform-origin: 256.47px 262.645px;" id="elaudl28wb2k" class="animable"></polygon><circle cx="159.35" cy="271.05" r="11.62" style="fill: rgb(235, 235, 235); transform-origin: 159.35px 271.05px;" id="el4z5yr4elpvj" class="animable"></circle><circle cx="179.25" cy="276.59" r="11.62" style="fill: rgb(235, 235, 235); transform-origin: 179.25px 276.59px;" id="elu1owvx69hi" class="animable"></circle><g id="eluv1qhifpc7i"><circle cx="196.07" cy="271.75" r="7.75" style="fill: rgb(235, 235, 235); transform-origin: 196.07px 271.75px; transform: rotate(-22.39deg);" class="animable"></circle></g><g id="ellllxddf0ntn"><circle cx="170.98" cy="264" r="7.75" style="fill: rgb(235, 235, 235); transform-origin: 170.98px 264px; transform: rotate(-80.8deg);" class="animable"></circle></g><path d="M140.77,274.51s.91,17.95,35.78,17.95,35.78-17.95,35.78-17.95Z" style="fill: rgb(224, 224, 224); transform-origin: 176.55px 283.485px;" id="eluftzxj3fjs" class="animable"></path><path d="M108.57,286.31s-11.36-19.58,4.4-35.17c0,0,4.11,2.68,4,6.29s-4.41,4.51-3.48,7.52,5,6,2.35,8.45.43,4.69.25,7.74S108.57,286.31,108.57,286.31Z" style="fill: rgb(224, 224, 224); transform-origin: 110.791px 268.725px;" id="elksxw42mhaq" class="animable"></path><path d="M109.43,288.1s4.6-22.16-15.27-32c0,0-3.06,3.85-1.86,7.25s5.6,2.89,5.67,6-2.9,7.24.44,8.75,1.07,4.6,2.2,7.43S109.43,288.1,109.43,288.1Z" style="fill: rgb(224, 224, 224); transform-origin: 100.956px 272.103px;" id="elh0fwv3wfovj" class="animable"></path><path d="M92,277.85s.38,14.61,14.86,14.61,14.86-14.61,14.86-14.61Z" style="fill: rgb(235, 235, 235); transform-origin: 106.86px 285.155px;" id="elgli33x626qi" class="animable"></path></g><g id="freepik--Shadow--inject-4" class="animable" style="transform-origin: 250px 416.24px;"><ellipse cx="250" cy="416.24" rx="193.89" ry="11.32" style="fill: rgb(245, 245, 245); transform-origin: 250px 416.24px;" id="elxkvumwojt4h" class="animable"></ellipse></g><g id="freepik--Calendar--inject-4" class="animable" style="transform-origin: 274.337px 321.906px;"><path d="M180.45,272.44a2.34,2.34,0,0,1,0-4.67c5.72,0,10.54-8.19,10.54-17.89a2.34,2.34,0,0,1,4.67,0C195.66,262.53,189,272.44,180.45,272.44Z" style="fill: rgb(90, 233, 130); transform-origin: 186.961px 260.066px;" id="elb15swqsu4to" class="animable"></path><path d="M215.74,272.44a2.34,2.34,0,0,1,0-4.67c5.72,0,10.54-8.19,10.54-17.89a2.34,2.34,0,0,1,4.67,0C231,262.53,224.27,272.44,215.74,272.44Z" style="fill: rgb(90, 233, 130); transform-origin: 222.252px 260.066px;" id="el6vyjk8m969" class="animable"></path><path d="M251,272.44a2.34,2.34,0,0,1,0-4.67c5.71,0,10.54-8.19,10.54-17.89a2.33,2.33,0,0,1,4.66,0C266.23,262.53,259.56,272.44,251,272.44Z" style="fill: rgb(90, 233, 130); transform-origin: 257.506px 259.995px;" id="elikt7ezedoip" class="animable"></path><path d="M286.32,272.44a2.34,2.34,0,1,1,0-4.67c5.71,0,10.54-8.19,10.54-17.89a2.33,2.33,0,0,1,4.66,0C301.52,262.53,294.84,272.44,286.32,272.44Z" style="fill: rgb(90, 233, 130); transform-origin: 292.674px 260.001px;" id="eljlur0lp2qmo" class="animable"></path><path d="M321.6,272.44a2.34,2.34,0,0,1,0-4.67c5.72,0,10.54-8.19,10.54-17.89a2.34,2.34,0,0,1,4.67,0C336.81,262.53,330.13,272.44,321.6,272.44Z" style="fill: rgb(90, 233, 130); transform-origin: 328.111px 260.066px;" id="elej6cmfmvthq" class="animable"></path><path d="M356.89,272.44a2.34,2.34,0,0,1,0-4.67c5.71,0,10.54-8.19,10.54-17.89a2.34,2.34,0,0,1,4.67,0C372.1,262.53,365.42,272.44,356.89,272.44Z" style="fill: rgb(90, 233, 130); transform-origin: 363.401px 260.066px;" id="el84w3am2uuu8" class="animable"></path><g id="elotkdjbno7qs"><g style="opacity: 0.3; transform-origin: 275.181px 259.997px;" class="animable"><path d="M180.45,272.44a2.34,2.34,0,0,1,0-4.67c5.72,0,10.54-8.19,10.54-17.89a2.34,2.34,0,0,1,4.67,0C195.66,262.53,189,272.44,180.45,272.44Z" id="elbe2ql768ia" class="animable" style="transform-origin: 186.961px 260.066px;"></path><path d="M215.74,272.44a2.34,2.34,0,0,1,0-4.67c5.72,0,10.54-8.19,10.54-17.89a2.34,2.34,0,0,1,4.67,0C231,262.53,224.27,272.44,215.74,272.44Z" id="el49mwkocg58l" class="animable" style="transform-origin: 222.252px 260.066px;"></path><path d="M251,272.44a2.34,2.34,0,0,1,0-4.67c5.71,0,10.54-8.19,10.54-17.89a2.33,2.33,0,0,1,4.66,0C266.23,262.53,259.56,272.44,251,272.44Z" id="els6ce78xj98m" class="animable" style="transform-origin: 257.506px 259.995px;"></path><path d="M286.32,272.44a2.34,2.34,0,1,1,0-4.67c5.71,0,10.54-8.19,10.54-17.89a2.33,2.33,0,0,1,4.66,0C301.52,262.53,294.84,272.44,286.32,272.44Z" id="elwj9d3p42x09" class="animable" style="transform-origin: 292.674px 260.001px;"></path><path d="M321.6,272.44a2.34,2.34,0,0,1,0-4.67c5.72,0,10.54-8.19,10.54-17.89a2.34,2.34,0,0,1,4.67,0C336.81,262.53,330.13,272.44,321.6,272.44Z" id="elzmjkalnmhmd" class="animable" style="transform-origin: 328.111px 260.066px;"></path><path d="M356.89,272.44a2.34,2.34,0,0,1,0-4.67c5.71,0,10.54-8.19,10.54-17.89a2.34,2.34,0,0,1,4.67,0C372.1,262.53,365.42,272.44,356.89,272.44Z" id="elw3f2wnr0t5i" class="animable" style="transform-origin: 363.401px 260.066px;"></path></g></g><path d="M158.34,252.27H385.52a12.51,12.51,0,0,1,12.19,11.19l12.58,141.83a10.11,10.11,0,0,1-10.2,11.19H172.9a12.53,12.53,0,0,1-12.19-11.19L148.14,263.46A10.1,10.1,0,0,1,158.34,252.27Z" style="fill: rgb(90, 233, 130); transform-origin: 279.214px 334.375px;" id="el0ou6bvem4wbr" class="animable"></path><g id="elhqg9kf4puft"><path d="M158.34,252.27H385.52a12.51,12.51,0,0,1,12.19,11.19l12.58,141.83a10.11,10.11,0,0,1-10.2,11.19H172.9a12.53,12.53,0,0,1-12.19-11.19L148.14,263.46A10.1,10.1,0,0,1,158.34,252.27Z" style="fill: rgb(250, 250, 250); opacity: 0.4; transform-origin: 279.214px 334.375px;" class="animable"></path></g><path d="M383.63,252.27H156.44a11.86,11.86,0,0,0-11.7,11.19l-6.4,141.83A10.63,10.63,0,0,0,149,416.48H376.21a11.86,11.86,0,0,0,11.7-11.19l6.41-141.83A10.64,10.64,0,0,0,383.63,252.27Z" style="fill: rgb(90, 233, 130); transform-origin: 266.33px 334.375px;" id="elpftt1wcxzm" class="animable"></path><g id="elb00acyd6w29"><path d="M383.63,252.27H156.44a11.86,11.86,0,0,0-11.7,11.19l-6.4,141.83A10.63,10.63,0,0,0,149,416.48H376.21a11.86,11.86,0,0,0,11.7-11.19l6.41-141.83A10.64,10.64,0,0,0,383.63,252.27Z" style="fill: rgb(250, 250, 250); opacity: 0.2; transform-origin: 266.33px 334.375px;" class="animable"></path></g><path d="M160.61,379l5.29-117.13a4.53,4.53,0,0,1,4.48-4.28H369.21a4.07,4.07,0,0,1,4.09,4.28L368,379a4.53,4.53,0,0,1-4.48,4.28H164.7A4.07,4.07,0,0,1,160.61,379Z" style="fill: rgb(90, 233, 130); transform-origin: 266.955px 320.435px;" id="el3xt69o5o9uk" class="animable"></path><g id="elt35ndqjarlq"><path d="M160.61,379l5.29-117.13a4.53,4.53,0,0,1,4.48-4.28H369.21a4.07,4.07,0,0,1,4.09,4.28L368,379a4.53,4.53,0,0,1-4.48,4.28H164.7A4.07,4.07,0,0,1,160.61,379Z" style="fill: rgb(250, 250, 250); opacity: 0.1; transform-origin: 266.955px 320.435px;" class="animable"></path></g><g id="elbnvi8rq9f0r"><path d="M155,388.56l5.55-123a4.74,4.74,0,0,1,4.7-4.49H374.05a4.26,4.26,0,0,1,4.29,4.49l-5.56,123a4.75,4.75,0,0,1-4.69,4.5H159.27A4.25,4.25,0,0,1,155,388.56Z" style="opacity: 0.1; transform-origin: 266.669px 327.065px;" class="animable"></path></g><path d="M149.84,398.48l5.79-128.3a5,5,0,0,1,4.9-4.69H378.34a4.45,4.45,0,0,1,4.48,4.69L377,398.48a5,5,0,0,1-4.9,4.69H154.32A4.44,4.44,0,0,1,149.84,398.48Z" style="fill: rgb(250, 250, 250); transform-origin: 266.33px 334.33px;" id="eluzi7m7ksqya" class="animable"></path><path d="M356.86,273.18h0a3,3,0,0,1-3-3.18h0a3.15,3.15,0,0,1,3.11-3h0a3,3,0,0,1,3,3.18h0A3.15,3.15,0,0,1,356.86,273.18Z" style="fill: rgb(90, 233, 130); transform-origin: 356.915px 270.09px;" id="el4n7qykue2j" class="animable"></path><path d="M321.57,273.18h0a3,3,0,0,1-3-3.18h0a3.15,3.15,0,0,1,3.11-3h0a3,3,0,0,1,3,3.18h0A3.14,3.14,0,0,1,321.57,273.18Z" style="fill: rgb(90, 233, 130); transform-origin: 321.625px 270.09px;" id="elcjo65dkvird" class="animable"></path><path d="M286.28,273.18h0a3,3,0,0,1-3-3.18h0a3.16,3.16,0,0,1,3.11-3h0a3,3,0,0,1,3,3.18h0A3.14,3.14,0,0,1,286.28,273.18Z" style="fill: rgb(90, 233, 130); transform-origin: 286.335px 270.09px;" id="el9zuqghaom1u" class="animable"></path><path d="M251,273.18h0a3,3,0,0,1-3-3.18h0a3.17,3.17,0,0,1,3.12-3h0a3,3,0,0,1,3,3.18h0A3.14,3.14,0,0,1,251,273.18Z" style="fill: rgb(90, 233, 130); transform-origin: 251.06px 270.09px;" id="eltr37eh08zpb" class="animable"></path><path d="M215.71,273.18h0a3,3,0,0,1-3-3.18h0a3.15,3.15,0,0,1,3.11-3h0a3,3,0,0,1,3,3.18h0A3.15,3.15,0,0,1,215.71,273.18Z" style="fill: rgb(90, 233, 130); transform-origin: 215.765px 270.09px;" id="elejw7drc29pc" class="animable"></path><path d="M180.42,273.18h0a3,3,0,0,1-3-3.18h0a3.15,3.15,0,0,1,3.11-3h0a3,3,0,0,1,3,3.18h0A3.14,3.14,0,0,1,180.42,273.18Z" style="fill: rgb(90, 233, 130); transform-origin: 180.475px 270.09px;" id="elx1owhbjlhj8" class="animable"></path><g id="elqh6xqvgx9n"><g style="opacity: 0.1; transform-origin: 268.695px 270.09px;" class="animable"><path d="M356.86,273.18h0a3,3,0,0,1-3-3.18h0a3.15,3.15,0,0,1,3.11-3h0a3,3,0,0,1,3,3.18h0A3.15,3.15,0,0,1,356.86,273.18Z" style="fill: rgb(250, 250, 250); transform-origin: 356.915px 270.09px;" id="elwve5cj1ojml" class="animable"></path><path d="M321.57,273.18h0a3,3,0,0,1-3-3.18h0a3.15,3.15,0,0,1,3.11-3h0a3,3,0,0,1,3,3.18h0A3.14,3.14,0,0,1,321.57,273.18Z" style="fill: rgb(250, 250, 250); transform-origin: 321.625px 270.09px;" id="elfk0p8qbnuv" class="animable"></path><path d="M286.28,273.18h0a3,3,0,0,1-3-3.18h0a3.16,3.16,0,0,1,3.11-3h0a3,3,0,0,1,3,3.18h0A3.14,3.14,0,0,1,286.28,273.18Z" style="fill: rgb(250, 250, 250); transform-origin: 286.335px 270.09px;" id="elv7rfi78oxrk" class="animable"></path><path d="M251,273.18h0a3,3,0,0,1-3-3.18h0a3.17,3.17,0,0,1,3.12-3h0a3,3,0,0,1,3,3.18h0A3.14,3.14,0,0,1,251,273.18Z" style="fill: rgb(250, 250, 250); transform-origin: 251.06px 270.09px;" id="eliy07y6wypda" class="animable"></path><path d="M215.71,273.18h0a3,3,0,0,1-3-3.18h0a3.15,3.15,0,0,1,3.11-3h0a3,3,0,0,1,3,3.18h0A3.15,3.15,0,0,1,215.71,273.18Z" style="fill: rgb(250, 250, 250); transform-origin: 215.765px 270.09px;" id="elpi94tnexsp8" class="animable"></path><path d="M180.42,273.18h0a3,3,0,0,1-3-3.18h0a3.15,3.15,0,0,1,3.11-3h0a3,3,0,0,1,3,3.18h0A3.14,3.14,0,0,1,180.42,273.18Z" style="fill: rgb(250, 250, 250); transform-origin: 180.475px 270.09px;" id="elat7h0jmfssa" class="animable"></path></g></g><path d="M189.24,284.36H171.49a1.86,1.86,0,0,1-1.87-2h0a2.08,2.08,0,0,1,2-2h17.75a1.86,1.86,0,0,1,1.87,2h0A2.08,2.08,0,0,1,189.24,284.36Z" style="fill: rgb(90, 233, 130); transform-origin: 180.43px 282.36px;" id="ellmf8bgjn6m" class="animable"></path><path d="M224.53,284.36H206.78a1.86,1.86,0,0,1-1.87-2h0a2.08,2.08,0,0,1,2.05-2H224.7a1.87,1.87,0,0,1,1.88,2h0A2.08,2.08,0,0,1,224.53,284.36Z" style="fill: rgb(90, 233, 130); transform-origin: 215.745px 282.36px;" id="ely3c1ns365ga" class="animable"></path><path d="M259.82,284.36H242.07a1.87,1.87,0,0,1-1.88-2h0a2.08,2.08,0,0,1,2.05-2H260a1.86,1.86,0,0,1,1.87,2h0A2.07,2.07,0,0,1,259.82,284.36Z" style="fill: rgb(90, 233, 130); transform-origin: 251.03px 282.36px;" id="elho35ek2sp4g" class="animable"></path><path d="M295.1,284.36H277.35a1.86,1.86,0,0,1-1.87-2h0a2.08,2.08,0,0,1,2-2h17.75a1.86,1.86,0,0,1,1.87,2h0A2.08,2.08,0,0,1,295.1,284.36Z" style="fill: rgb(90, 233, 130); transform-origin: 286.29px 282.36px;" id="eld2n9q006jq8" class="animable"></path><path d="M330.39,284.36H312.64a1.86,1.86,0,0,1-1.87-2h0a2.08,2.08,0,0,1,2.05-2h17.75a1.86,1.86,0,0,1,1.87,2h0A2.08,2.08,0,0,1,330.39,284.36Z" style="fill: rgb(90, 233, 130); transform-origin: 321.605px 282.36px;" id="elgsgh7fot29g" class="animable"></path><path d="M365.68,284.36H347.93a1.86,1.86,0,0,1-1.87-2h0a2.08,2.08,0,0,1,2.05-2h17.74a1.87,1.87,0,0,1,1.88,2h0A2.08,2.08,0,0,1,365.68,284.36Z" style="fill: rgb(90, 233, 130); transform-origin: 356.895px 282.36px;" id="eles7iy7xj7pc" class="animable"></path><g id="eln7a23icdsyh"><g style="opacity: 0.3; transform-origin: 268.675px 282.36px;" class="animable"><path d="M189.24,284.36H171.49a1.86,1.86,0,0,1-1.87-2h0a2.08,2.08,0,0,1,2-2h17.75a1.86,1.86,0,0,1,1.87,2h0A2.08,2.08,0,0,1,189.24,284.36Z" id="eljz0ov3fy4ib" class="animable" style="transform-origin: 180.43px 282.36px;"></path><path d="M224.53,284.36H206.78a1.86,1.86,0,0,1-1.87-2h0a2.08,2.08,0,0,1,2.05-2H224.7a1.87,1.87,0,0,1,1.88,2h0A2.08,2.08,0,0,1,224.53,284.36Z" id="elku8yt51fi5" class="animable" style="transform-origin: 215.745px 282.36px;"></path><path d="M259.82,284.36H242.07a1.87,1.87,0,0,1-1.88-2h0a2.08,2.08,0,0,1,2.05-2H260a1.86,1.86,0,0,1,1.87,2h0A2.07,2.07,0,0,1,259.82,284.36Z" id="elvvivrhcrzib" class="animable" style="transform-origin: 251.03px 282.36px;"></path><path d="M295.1,284.36H277.35a1.86,1.86,0,0,1-1.87-2h0a2.08,2.08,0,0,1,2-2h17.75a1.86,1.86,0,0,1,1.87,2h0A2.08,2.08,0,0,1,295.1,284.36Z" id="elkjugms6e6a" class="animable" style="transform-origin: 286.29px 282.36px;"></path><path d="M330.39,284.36H312.64a1.86,1.86,0,0,1-1.87-2h0a2.08,2.08,0,0,1,2.05-2h17.75a1.86,1.86,0,0,1,1.87,2h0A2.08,2.08,0,0,1,330.39,284.36Z" id="elr1woq6ejmo" class="animable" style="transform-origin: 321.605px 282.36px;"></path><path d="M365.68,284.36H347.93a1.86,1.86,0,0,1-1.87-2h0a2.08,2.08,0,0,1,2.05-2h17.74a1.87,1.87,0,0,1,1.88,2h0A2.08,2.08,0,0,1,365.68,284.36Z" id="elwth3xx0t2j8" class="animable" style="transform-origin: 356.895px 282.36px;"></path></g></g><path d="M190.22,322.13H167.1a3.73,3.73,0,0,1-3.74-3.92l1-23.12a4.16,4.16,0,0,1,4.1-3.92h23.12a3.73,3.73,0,0,1,3.74,3.92l-1,23.12A4.17,4.17,0,0,1,190.22,322.13Z" style="fill: rgb(90, 233, 130); transform-origin: 179.34px 306.65px;" id="elnhz2p1lqdi9" class="animable"></path><path d="M225.51,322.13H202.39a3.72,3.72,0,0,1-3.74-3.92l1-23.12a4.16,4.16,0,0,1,4.1-3.92H226.9a3.74,3.74,0,0,1,3.75,3.92l-1.05,23.12A4.15,4.15,0,0,1,225.51,322.13Z" style="fill: rgb(90, 233, 130); transform-origin: 214.649px 306.65px;" id="eltlrbdes3es" class="animable"></path><path d="M260.79,322.13H237.68a3.74,3.74,0,0,1-3.75-3.92l1-23.12a4.16,4.16,0,0,1,4.1-3.92h23.11a3.72,3.72,0,0,1,3.74,3.92l-1,23.12A4.16,4.16,0,0,1,260.79,322.13Z" style="fill: rgb(90, 233, 130); transform-origin: 249.906px 306.65px;" id="eluz0ks765hz" class="animable"></path><path d="M296.08,322.13H273a3.73,3.73,0,0,1-3.75-3.92l1-23.12a4.15,4.15,0,0,1,4.09-3.92h23.12a3.73,3.73,0,0,1,3.74,3.92l-1,23.12A4.16,4.16,0,0,1,296.08,322.13Z" style="fill: rgb(90, 233, 130); transform-origin: 285.225px 306.65px;" id="elumm7al9r1wj" class="animable"></path><path d="M331.37,322.13H308.25a3.73,3.73,0,0,1-3.74-3.92l1-23.12a4.16,4.16,0,0,1,4.1-3.92h23.11a3.73,3.73,0,0,1,3.75,3.92l-1,23.12A4.17,4.17,0,0,1,331.37,322.13Z" style="fill: rgb(90, 233, 130); transform-origin: 320.49px 306.65px;" id="el3znv7sldnfc" class="animable"></path><path d="M366.65,322.13H343.54a3.72,3.72,0,0,1-3.74-3.92l1-23.12a4.16,4.16,0,0,1,4.1-3.92h23.11a3.74,3.74,0,0,1,3.75,3.92l-1.05,23.12A4.15,4.15,0,0,1,366.65,322.13Z" style="fill: rgb(90, 233, 130); transform-origin: 355.779px 306.65px;" id="elftwil2l8c7s" class="animable"></path><g id="ellxy3ocxbdnd"><g style="opacity: 0.8; transform-origin: 267.56px 306.65px;" class="animable"><path d="M190.22,322.13H167.1a3.73,3.73,0,0,1-3.74-3.92l1-23.12a4.16,4.16,0,0,1,4.1-3.92h23.12a3.73,3.73,0,0,1,3.74,3.92l-1,23.12A4.17,4.17,0,0,1,190.22,322.13Z" style="fill: rgb(250, 250, 250); transform-origin: 179.34px 306.65px;" id="elcsdh31rfew" class="animable"></path><path d="M225.51,322.13H202.39a3.72,3.72,0,0,1-3.74-3.92l1-23.12a4.16,4.16,0,0,1,4.1-3.92H226.9a3.74,3.74,0,0,1,3.75,3.92l-1.05,23.12A4.15,4.15,0,0,1,225.51,322.13Z" style="fill: rgb(250, 250, 250); transform-origin: 214.649px 306.65px;" id="elvym9bjvo1m" class="animable"></path><path d="M260.79,322.13H237.68a3.74,3.74,0,0,1-3.75-3.92l1-23.12a4.16,4.16,0,0,1,4.1-3.92h23.11a3.72,3.72,0,0,1,3.74,3.92l-1,23.12A4.16,4.16,0,0,1,260.79,322.13Z" style="fill: rgb(250, 250, 250); transform-origin: 249.906px 306.65px;" id="elibi19akvugi" class="animable"></path><path d="M296.08,322.13H273a3.73,3.73,0,0,1-3.75-3.92l1-23.12a4.15,4.15,0,0,1,4.09-3.92h23.12a3.73,3.73,0,0,1,3.74,3.92l-1,23.12A4.16,4.16,0,0,1,296.08,322.13Z" style="fill: rgb(250, 250, 250); transform-origin: 285.225px 306.65px;" id="el83duslx6cih" class="animable"></path><path d="M331.37,322.13H308.25a3.73,3.73,0,0,1-3.74-3.92l1-23.12a4.16,4.16,0,0,1,4.1-3.92h23.11a3.73,3.73,0,0,1,3.75,3.92l-1,23.12A4.17,4.17,0,0,1,331.37,322.13Z" style="fill: rgb(250, 250, 250); transform-origin: 320.49px 306.65px;" id="elsupv7tknr3q" class="animable"></path><path d="M366.65,322.13H343.54a3.72,3.72,0,0,1-3.74-3.92l1-23.12a4.16,4.16,0,0,1,4.1-3.92h23.11a3.74,3.74,0,0,1,3.75,3.92l-1.05,23.12A4.15,4.15,0,0,1,366.65,322.13Z" style="fill: rgb(250, 250, 250); transform-origin: 355.779px 306.65px;" id="elthwjfzs3vx" class="animable"></path></g></g><path d="M188.6,358H165.48a3.73,3.73,0,0,1-3.74-3.92l1-23.12a4.17,4.17,0,0,1,4.1-3.92H190a3.73,3.73,0,0,1,3.74,3.92l-1,23.12A4.17,4.17,0,0,1,188.6,358Z" style="fill: rgb(90, 233, 130); transform-origin: 177.74px 342.52px;" id="el5cll6a1psl5" class="animable"></path><path d="M223.89,358H200.77a3.73,3.73,0,0,1-3.74-3.92l1-23.12a4.16,4.16,0,0,1,4.1-3.92h23.11A3.74,3.74,0,0,1,229,331L228,354.08A4.15,4.15,0,0,1,223.89,358Z" style="fill: rgb(90, 233, 130); transform-origin: 213.016px 342.52px;" id="elx743r4z9xyr" class="animable"></path><path d="M259.17,358H236.06a3.72,3.72,0,0,1-3.74-3.92l1-23.12a4.16,4.16,0,0,1,4.1-3.92h23.11a3.72,3.72,0,0,1,3.74,3.92l-1,23.12A4.16,4.16,0,0,1,259.17,358Z" style="fill: rgb(90, 233, 130); transform-origin: 248.295px 342.52px;" id="ely8ucxdi5ni" class="animable"></path><path d="M294.46,358H271.35a3.74,3.74,0,0,1-3.75-3.92l1-23.12a4.15,4.15,0,0,1,4.09-3.92h23.12A3.73,3.73,0,0,1,299.6,331l-1,23.12A4.16,4.16,0,0,1,294.46,358Z" style="fill: rgb(90, 233, 130); transform-origin: 283.601px 342.52px;" id="el8y746v2oyhq" class="animable"></path><path d="M329.75,358H306.63a3.73,3.73,0,0,1-3.74-3.92l1-23.12A4.17,4.17,0,0,1,308,327h23.12a3.73,3.73,0,0,1,3.74,3.92l-1,23.12A4.17,4.17,0,0,1,329.75,358Z" style="fill: rgb(90, 233, 130); transform-origin: 318.875px 342.5px;" id="elv2whjm4dkx" class="animable"></path><path d="M365,358H341.92a3.72,3.72,0,0,1-3.74-3.92l1-23.12a4.16,4.16,0,0,1,4.1-3.92h23.11a3.74,3.74,0,0,1,3.75,3.92l-1.05,23.12A4.15,4.15,0,0,1,365,358Z" style="fill: rgb(90, 233, 130); transform-origin: 354.159px 342.52px;" id="ely85r3hi74m" class="animable"></path><g id="el6pjthdk4tvo"><g style="opacity: 0.8; transform-origin: 265.94px 342.5px;" class="animable"><path d="M188.6,358H165.48a3.73,3.73,0,0,1-3.74-3.92l1-23.12a4.17,4.17,0,0,1,4.1-3.92H190a3.73,3.73,0,0,1,3.74,3.92l-1,23.12A4.17,4.17,0,0,1,188.6,358Z" style="fill: rgb(250, 250, 250); transform-origin: 177.74px 342.52px;" id="eliz1n3ijazp9" class="animable"></path><path d="M223.89,358H200.77a3.73,3.73,0,0,1-3.74-3.92l1-23.12a4.16,4.16,0,0,1,4.1-3.92h23.11A3.74,3.74,0,0,1,229,331L228,354.08A4.15,4.15,0,0,1,223.89,358Z" style="fill: rgb(250, 250, 250); transform-origin: 213.016px 342.52px;" id="elrbaesa5h9x" class="animable"></path><path d="M259.17,358H236.06a3.72,3.72,0,0,1-3.74-3.92l1-23.12a4.16,4.16,0,0,1,4.1-3.92h23.11a3.72,3.72,0,0,1,3.74,3.92l-1,23.12A4.16,4.16,0,0,1,259.17,358Z" style="fill: rgb(250, 250, 250); transform-origin: 248.295px 342.52px;" id="elksc5u1pl4ah" class="animable"></path><path d="M294.46,358H271.35a3.74,3.74,0,0,1-3.75-3.92l1-23.12a4.15,4.15,0,0,1,4.09-3.92h23.12A3.73,3.73,0,0,1,299.6,331l-1,23.12A4.16,4.16,0,0,1,294.46,358Z" style="fill: rgb(250, 250, 250); transform-origin: 283.601px 342.52px;" id="elyrsspzdj6h" class="animable"></path><path d="M329.75,358H306.63a3.73,3.73,0,0,1-3.74-3.92l1-23.12A4.17,4.17,0,0,1,308,327h23.12a3.73,3.73,0,0,1,3.74,3.92l-1,23.12A4.17,4.17,0,0,1,329.75,358Z" style="fill: rgb(250, 250, 250); transform-origin: 318.875px 342.5px;" id="el9fdnb72ji3k" class="animable"></path><path d="M365,358H341.92a3.72,3.72,0,0,1-3.74-3.92l1-23.12a4.16,4.16,0,0,1,4.1-3.92h23.11a3.74,3.74,0,0,1,3.75,3.92l-1.05,23.12A4.15,4.15,0,0,1,365,358Z" style="fill: rgb(250, 250, 250); transform-origin: 354.159px 342.52px;" id="elowwi8dmubx" class="animable"></path></g></g><path d="M187,393.86H163.86a3.72,3.72,0,0,1-3.74-3.92l1-23.11a4.16,4.16,0,0,1,4.1-3.92h23.12a3.72,3.72,0,0,1,3.74,3.92l-1,23.11A4.15,4.15,0,0,1,187,393.86Z" style="fill: rgb(90, 233, 130); transform-origin: 176.1px 378.385px;" id="elqwxsdvgsbuf" class="animable"></path><path d="M222.27,393.86H199.15a3.72,3.72,0,0,1-3.74-3.92l1-23.11a4.15,4.15,0,0,1,4.1-3.92h23.11a3.72,3.72,0,0,1,3.75,3.92l-1,23.11A4.14,4.14,0,0,1,222.27,393.86Z" style="fill: rgb(90, 233, 130); transform-origin: 211.39px 378.385px;" id="elog1lpp7gwoc" class="animable"></path><path d="M257.55,393.86H234.44a3.72,3.72,0,0,1-3.74-3.92l1-23.11a4.15,4.15,0,0,1,4.1-3.92H259a3.73,3.73,0,0,1,3.75,3.92l-1.05,23.11A4.15,4.15,0,0,1,257.55,393.86Z" style="fill: rgb(90, 233, 130); transform-origin: 246.725px 378.385px;" id="el58x671delsn" class="animable"></path><path d="M292.84,393.86H269.73a3.73,3.73,0,0,1-3.75-3.92l1-23.11a4.14,4.14,0,0,1,4.09-3.92h23.12a3.72,3.72,0,0,1,3.74,3.92l-1,23.11A4.15,4.15,0,0,1,292.84,393.86Z" style="fill: rgb(90, 233, 130); transform-origin: 281.955px 378.385px;" id="elpimitv5118" class="animable"></path><path d="M328.13,393.86H305a3.72,3.72,0,0,1-3.74-3.92l1-23.11a4.16,4.16,0,0,1,4.1-3.92h23.12a3.72,3.72,0,0,1,3.74,3.92l-1,23.11A4.16,4.16,0,0,1,328.13,393.86Z" style="fill: rgb(90, 233, 130); transform-origin: 317.24px 378.385px;" id="elmhtejlq7bt" class="animable"></path><path d="M363.42,393.86H340.3a3.72,3.72,0,0,1-3.74-3.92l1-23.11a4.15,4.15,0,0,1,4.1-3.92h23.11a3.73,3.73,0,0,1,3.75,3.92l-1.05,23.11A4.14,4.14,0,0,1,363.42,393.86Z" style="fill: rgb(90, 233, 130); transform-origin: 352.54px 378.385px;" id="eloib9lsxrdnq" class="animable"></path><g id="elzaf6646xh1g"><g style="opacity: 0.8; transform-origin: 264.32px 378.385px;" class="animable"><path d="M187,393.86H163.86a3.72,3.72,0,0,1-3.74-3.92l1-23.11a4.16,4.16,0,0,1,4.1-3.92h23.12a3.72,3.72,0,0,1,3.74,3.92l-1,23.11A4.15,4.15,0,0,1,187,393.86Z" style="fill: rgb(250, 250, 250); transform-origin: 176.1px 378.385px;" id="el8cxxdswqtqg" class="animable"></path><path d="M222.27,393.86H199.15a3.72,3.72,0,0,1-3.74-3.92l1-23.11a4.15,4.15,0,0,1,4.1-3.92h23.11a3.72,3.72,0,0,1,3.75,3.92l-1,23.11A4.14,4.14,0,0,1,222.27,393.86Z" style="fill: rgb(250, 250, 250); transform-origin: 211.39px 378.385px;" id="eloskfkw1vxa" class="animable"></path><path d="M257.55,393.86H234.44a3.72,3.72,0,0,1-3.74-3.92l1-23.11a4.15,4.15,0,0,1,4.1-3.92H259a3.73,3.73,0,0,1,3.75,3.92l-1.05,23.11A4.15,4.15,0,0,1,257.55,393.86Z" style="fill: rgb(250, 250, 250); transform-origin: 246.725px 378.385px;" id="elg205h9shpxt" class="animable"></path><path d="M292.84,393.86H269.73a3.73,3.73,0,0,1-3.75-3.92l1-23.11a4.14,4.14,0,0,1,4.09-3.92h23.12a3.72,3.72,0,0,1,3.74,3.92l-1,23.11A4.15,4.15,0,0,1,292.84,393.86Z" style="fill: rgb(250, 250, 250); transform-origin: 281.955px 378.385px;" id="elm0rf2r07f6" class="animable"></path><path d="M328.13,393.86H305a3.72,3.72,0,0,1-3.74-3.92l1-23.11a4.16,4.16,0,0,1,4.1-3.92h23.12a3.72,3.72,0,0,1,3.74,3.92l-1,23.11A4.16,4.16,0,0,1,328.13,393.86Z" style="fill: rgb(250, 250, 250); transform-origin: 317.24px 378.385px;" id="elgwhccp1e54v" class="animable"></path><path d="M363.42,393.86H340.3a3.72,3.72,0,0,1-3.74-3.92l1-23.11a4.15,4.15,0,0,1,4.1-3.92h23.11a3.73,3.73,0,0,1,3.75,3.92l-1.05,23.11A4.14,4.14,0,0,1,363.42,393.86Z" style="fill: rgb(250, 250, 250); transform-origin: 352.54px 378.385px;" id="eltsbnhm572tt" class="animable"></path></g></g><path d="M180.45,272.44c-8.52,0-15.2-9.91-15.2-22.56s6.68-22.55,15.2-22.55,15.21,9.91,15.21,22.55a2.34,2.34,0,0,1-4.67,0c0-9.69-4.82-17.89-10.54-17.89s-10.54,8.2-10.54,17.89,4.83,17.89,10.54,17.89a2.34,2.34,0,1,1,0,4.67Z" style="fill: rgb(90, 233, 130); transform-origin: 180.455px 249.888px;" id="eluac3vf6qsx" class="animable"></path><path d="M215.74,272.44c-8.52,0-15.2-9.91-15.2-22.56s6.68-22.55,15.2-22.55S231,237.24,231,249.88a2.34,2.34,0,0,1-4.67,0c0-9.69-4.82-17.89-10.54-17.89s-10.54,8.2-10.54,17.89,4.83,17.89,10.54,17.89a2.34,2.34,0,0,1,0,4.67Z" style="fill: rgb(90, 233, 130); transform-origin: 215.77px 249.885px;" id="eliomuicbc88" class="animable"></path><path d="M251,272.44c-8.53,0-15.21-9.91-15.21-22.56s6.68-22.55,15.21-22.55,15.2,9.91,15.2,22.55a2.33,2.33,0,0,1-4.66,0c0-9.69-4.83-17.89-10.54-17.89s-10.54,8.2-10.54,17.89,4.83,17.89,10.54,17.89a2.34,2.34,0,0,1,0,4.67Z" style="fill: rgb(90, 233, 130); transform-origin: 250.995px 249.885px;" id="elruzv0w8gd3n" class="animable"></path><path d="M286.32,272.44c-8.53,0-15.21-9.91-15.21-22.56s6.68-22.55,15.21-22.55,15.2,9.91,15.2,22.55a2.33,2.33,0,0,1-4.66,0c0-9.69-4.83-17.89-10.54-17.89s-10.54,8.2-10.54,17.89,4.82,17.89,10.54,17.89a2.34,2.34,0,0,1,0,4.67Z" style="fill: rgb(90, 233, 130); transform-origin: 286.315px 249.885px;" id="elexmdw08qbi9" class="animable"></path><path d="M321.6,272.44c-8.52,0-15.2-9.91-15.2-22.56s6.68-22.55,15.2-22.55,15.21,9.91,15.21,22.55a2.34,2.34,0,0,1-4.67,0c0-9.69-4.82-17.89-10.54-17.89s-10.54,8.2-10.54,17.89,4.83,17.89,10.54,17.89a2.34,2.34,0,1,1,0,4.67Z" style="fill: rgb(90, 233, 130); transform-origin: 321.605px 249.888px;" id="el9a3pjxmabk8" class="animable"></path><path d="M356.89,272.44c-8.52,0-15.2-9.91-15.2-22.56s6.68-22.55,15.2-22.55,15.21,9.91,15.21,22.55a2.34,2.34,0,0,1-4.67,0c0-9.69-4.83-17.89-10.54-17.89s-10.54,8.2-10.54,17.89,4.83,17.89,10.54,17.89a2.34,2.34,0,0,1,0,4.67Z" style="fill: rgb(90, 233, 130); transform-origin: 356.895px 249.885px;" id="ele8oi9equvz4" class="animable"></path><g id="elsjivciarh28"><g style="opacity: 0.3; transform-origin: 268.675px 249.888px;" class="animable"><path d="M180.45,272.44c-8.52,0-15.2-9.91-15.2-22.56s6.68-22.55,15.2-22.55,15.21,9.91,15.21,22.55a2.34,2.34,0,0,1-4.67,0c0-9.69-4.82-17.89-10.54-17.89s-10.54,8.2-10.54,17.89,4.83,17.89,10.54,17.89a2.34,2.34,0,1,1,0,4.67Z" id="elga62zpqucgv" class="animable" style="transform-origin: 180.455px 249.888px;"></path><path d="M215.74,272.44c-8.52,0-15.2-9.91-15.2-22.56s6.68-22.55,15.2-22.55S231,237.24,231,249.88a2.34,2.34,0,0,1-4.67,0c0-9.69-4.82-17.89-10.54-17.89s-10.54,8.2-10.54,17.89,4.83,17.89,10.54,17.89a2.34,2.34,0,0,1,0,4.67Z" id="elk7gvsyvhgk8" class="animable" style="transform-origin: 215.77px 249.885px;"></path><path d="M251,272.44c-8.53,0-15.21-9.91-15.21-22.56s6.68-22.55,15.21-22.55,15.2,9.91,15.2,22.55a2.33,2.33,0,0,1-4.66,0c0-9.69-4.83-17.89-10.54-17.89s-10.54,8.2-10.54,17.89,4.83,17.89,10.54,17.89a2.34,2.34,0,0,1,0,4.67Z" id="elwriykai17c8" class="animable" style="transform-origin: 250.995px 249.885px;"></path><path d="M286.32,272.44c-8.53,0-15.21-9.91-15.21-22.56s6.68-22.55,15.21-22.55,15.2,9.91,15.2,22.55a2.33,2.33,0,0,1-4.66,0c0-9.69-4.83-17.89-10.54-17.89s-10.54,8.2-10.54,17.89,4.82,17.89,10.54,17.89a2.34,2.34,0,0,1,0,4.67Z" id="el6watey5e9ro" class="animable" style="transform-origin: 286.315px 249.885px;"></path><path d="M321.6,272.44c-8.52,0-15.2-9.91-15.2-22.56s6.68-22.55,15.2-22.55,15.21,9.91,15.21,22.55a2.34,2.34,0,0,1-4.67,0c0-9.69-4.82-17.89-10.54-17.89s-10.54,8.2-10.54,17.89,4.83,17.89,10.54,17.89a2.34,2.34,0,1,1,0,4.67Z" id="el8gp8rpt0a1b" class="animable" style="transform-origin: 321.605px 249.888px;"></path><path d="M356.89,272.44c-8.52,0-15.2-9.91-15.2-22.56s6.68-22.55,15.2-22.55,15.21,9.91,15.21,22.55a2.34,2.34,0,0,1-4.67,0c0-9.69-4.83-17.89-10.54-17.89s-10.54,8.2-10.54,17.89,4.83,17.89,10.54,17.89a2.34,2.34,0,0,1,0,4.67Z" id="elsu3qkqii54r" class="animable" style="transform-origin: 356.895px 249.885px;"></path></g></g><path d="M288.68,323.42c-8.16-1.62-17.32.27-20.59,8.87-2.63,6.92.74,14.42,8,16.25,6.4,1.61,17.44-.36,19.72-7.74,2.61-8.44-8-11.18-13.95-11.68-1.79-.15-1.78,2.65,0,2.8,2.71.23,5.81.38,8.21,1.87,5,3.13,2.94,8.15-1.32,10.55s-10.79,3-15,.34c-4.6-2.93-4.75-9.37-2-13.57,3.61-5.55,10.2-6.17,16.14-5,1.76.35,2.51-2.35.74-2.7Z" style="fill: rgb(90, 233, 130); transform-origin: 281.709px 335.979px;" id="el5b1i7tm6sa4" class="animable"></path><g id="el7oib5jnjj3a"><path d="M288.68,323.42c-8.16-1.62-17.32.27-20.59,8.87-2.63,6.92.74,14.42,8,16.25,6.4,1.61,17.44-.36,19.72-7.74,2.61-8.44-8-11.18-13.95-11.68-1.79-.15-1.78,2.65,0,2.8,2.71.23,5.81.38,8.21,1.87,5,3.13,2.94,8.15-1.32,10.55s-10.79,3-15,.34c-4.6-2.93-4.75-9.37-2-13.57,3.61-5.55,10.2-6.17,16.14-5,1.76.35,2.51-2.35.74-2.7Z" style="fill: rgb(250, 250, 250); opacity: 0.1; transform-origin: 281.709px 335.979px;" class="animable"></path></g><path d="M198.65,291.21a220.55,220.55,0,0,0,26,28.8c1.32,1.23,3.31-.75,2-2a217.28,217.28,0,0,1-25.57-28.23c-1.07-1.42-3.5,0-2.41,1.41Z" style="fill: rgb(90, 233, 130); transform-origin: 212.737px 304.795px;" id="elyvqaiqgfra" class="animable"></path><path d="M201.54,318.84c5.9-10.49,16.23-19.44,26-26.29,1.46-1,.07-3.46-1.41-2.42-10.16,7.14-20.84,16.36-27,27.29a1.4,1.4,0,0,0,2.41,1.42Z" style="fill: rgb(90, 233, 130); transform-origin: 213.563px 304.678px;" id="elozgzwa219g8" class="animable"></path><g id="el20rbnfp9oeb"><g style="opacity: 0.2; transform-origin: 213.277px 304.795px;" class="animable"><path d="M198.65,291.21a220.55,220.55,0,0,0,26,28.8c1.32,1.23,3.31-.75,2-2a217.28,217.28,0,0,1-25.57-28.23c-1.07-1.42-3.5,0-2.41,1.41Z" id="elyzgj8r07ae" class="animable" style="transform-origin: 212.737px 304.795px;"></path><path d="M201.54,318.84c5.9-10.49,16.23-19.44,26-26.29,1.46-1,.07-3.46-1.41-2.42-10.16,7.14-20.84,16.36-27,27.29a1.4,1.4,0,0,0,2.41,1.42Z" id="elj3t1vip5xsg" class="animable" style="transform-origin: 213.563px 304.678px;"></path></g></g><path d="M309.87,300.16h18.25a1.4,1.4,0,0,0,0-2.79H309.87a1.4,1.4,0,0,0,0,2.79Z" style="fill: rgb(90, 233, 130); transform-origin: 318.995px 298.765px;" id="ellj87r3so3j" class="animable"></path><path d="M309.66,305.35h10.58a1.4,1.4,0,0,0,0-2.8H309.66a1.4,1.4,0,0,0,0,2.8Z" style="fill: rgb(90, 233, 130); transform-origin: 314.95px 303.95px;" id="elk80mvl96ed" class="animable"></path><g id="el363qsf114td"><g style="opacity: 0.1; transform-origin: 318.834px 301.36px;" class="animable"><path d="M309.87,300.16h18.25a1.4,1.4,0,0,0,0-2.79H309.87a1.4,1.4,0,0,0,0,2.79Z" style="fill: rgb(250, 250, 250); transform-origin: 318.995px 298.765px;" id="eljrfi4vh7y18" class="animable"></path><path d="M309.66,305.35h10.58a1.4,1.4,0,0,0,0-2.8H309.66a1.4,1.4,0,0,0,0,2.8Z" style="fill: rgb(250, 250, 250); transform-origin: 314.95px 303.95px;" id="el53ke2mi54jv" class="animable"></path></g></g><path d="M200.56,371.8h15.65a1.4,1.4,0,0,0,0-2.8H200.56a1.4,1.4,0,0,0,0,2.8Z" style="fill: rgb(90, 233, 130); transform-origin: 208.385px 370.4px;" id="elcqb0wpgmoya" class="animable"></path><path d="M200,377.81H220.3a1.4,1.4,0,0,0,0-2.8H200a1.4,1.4,0,0,0,0,2.8Z" style="fill: rgb(90, 233, 130); transform-origin: 210.15px 376.41px;" id="el11doxnpkaqw" class="animable"></path><path d="M200,384h10.15a1.4,1.4,0,0,0,0-2.8H200a1.4,1.4,0,0,0,0,2.8Z" style="fill: rgb(90, 233, 130); transform-origin: 205.075px 382.6px;" id="el817nmnbpzlj" class="animable"></path><g id="el41ga8lxp5ja"><g style="opacity: 0.1; transform-origin: 210.15px 376.5px;" class="animable"><path d="M200.56,371.8h15.65a1.4,1.4,0,0,0,0-2.8H200.56a1.4,1.4,0,0,0,0,2.8Z" style="fill: rgb(250, 250, 250); transform-origin: 208.385px 370.4px;" id="eleymo6y1p2j" class="animable"></path><path d="M200,377.81H220.3a1.4,1.4,0,0,0,0-2.8H200a1.4,1.4,0,0,0,0,2.8Z" style="fill: rgb(250, 250, 250); transform-origin: 210.15px 376.41px;" id="ellgnpeia19c" class="animable"></path><path d="M200,384h10.15a1.4,1.4,0,0,0,0-2.8H200a1.4,1.4,0,0,0,0,2.8Z" style="fill: rgb(250, 250, 250); transform-origin: 205.075px 382.6px;" id="elucanvaswp5o" class="animable"></path></g></g></g><g id="freepik--Character--inject-4" class="animable" style="transform-origin: 141.084px 265.035px;"><path d="M90.19,214.79l4.73-.21-2.14,9a24.77,24.77,0,0,1-4.58-4.05,2.29,2.29,0,0,1,.24-3.21Z" style="fill: rgb(228, 137, 123); transform-origin: 91.2872px 219.08px;" id="elyq7lm3xdzpg" class="animable"></path><polygon points="100.41 219.43 98.29 226.75 92.78 223.56 94.92 214.58 100.41 219.43" style="fill: rgb(228, 137, 123); transform-origin: 96.595px 220.665px;" id="ela25fuhi4f3t" class="animable"></polygon><g id="eliks70rcsowl"><rect x="100.88" y="175.91" width="9.72" height="240.77" style="fill: rgb(90, 233, 130); transform-origin: 105.74px 296.295px; transform: rotate(-5.29deg);" class="animable"></rect></g><g id="elz6khfarrpk"><rect x="100.88" y="175.91" width="9.72" height="240.77" style="opacity: 0.3; transform-origin: 105.74px 296.295px; transform: rotate(-5.29deg);" class="animable"></rect></g><g id="elpfla3qwmcmc"><rect x="120.24" y="174.11" width="9.72" height="240.77" style="fill: rgb(90, 233, 130); transform-origin: 125.1px 294.495px; transform: rotate(-5.29deg);" class="animable"></rect></g><g id="elppc5l3rrvh"><rect x="120.24" y="174.11" width="9.72" height="240.77" style="opacity: 0.3; transform-origin: 125.1px 294.495px; transform: rotate(-5.29deg);" class="animable"></rect></g><g id="elgj3ykz4qtsd"><rect x="110.56" y="175.01" width="9.72" height="240.77" style="fill: rgb(90, 233, 130); transform-origin: 115.42px 295.395px; transform: rotate(-5.29deg);" class="animable"></rect></g><g id="ellmxhgds3qy8"><rect x="110.56" y="175.01" width="9.72" height="240.77" style="opacity: 0.1; transform-origin: 115.42px 295.395px; transform: rotate(-5.29deg);" class="animable"></rect></g><polygon points="107.12 158.31 98.41 159.12 89.8 176.87 118.84 174.18 107.12 158.31" style="fill: rgb(90, 233, 130); transform-origin: 104.32px 167.59px;" id="el9ar1nghzf8f" class="animable"></polygon><g id="elyw5te80f9a"><g style="opacity: 0.8; transform-origin: 104.32px 167.59px;" class="animable"><polygon points="107.12 158.31 98.41 159.12 89.8 176.87 118.84 174.18 107.12 158.31" style="fill: rgb(250, 250, 250); transform-origin: 104.32px 167.59px;" id="el1irgdwp7uzs" class="animable"></polygon></g></g><polygon points="102.1 151.51 98.41 159.12 107.12 158.31 102.1 151.51" style="fill: rgb(38, 50, 56); transform-origin: 102.765px 155.315px;" id="elhsa1mghndgo" class="animable"></polygon><path d="M175.28,165.06c1,1,1.83,1.95,2.69,3s1.68,2,2.5,3c1.65,2,3.19,4.11,4.69,6.26a74,74,0,0,1,7.78,14c.25.64.48,1.31.72,2l.36,1a9.91,9.91,0,0,1,.42,1.84,12.5,12.5,0,0,1-.77,5.87,27.8,27.8,0,0,1-4.48,7.6,62.34,62.34,0,0,1-11.44,10.85l-3.77-4a105.36,105.36,0,0,0,8.12-11.69,22,22,0,0,0,2.44-5.59,2.78,2.78,0,0,0,.05-1.49s0,0,0,0l-.34-.74c-.23-.49-.43-1-.68-1.48a78.26,78.26,0,0,0-7.4-11.69c-1.4-1.91-2.88-3.77-4.38-5.63-.75-.92-1.51-1.84-2.29-2.74l-2.28-2.63Z" style="fill: rgb(228, 137, 123); transform-origin: 180.867px 192.77px;" id="el2cyp2lu5qt9" class="animable"></path><polygon points="167.93 219.53 172.19 227.96 176.36 224.37 172.94 218.38 167.93 219.53" style="fill: rgb(228, 137, 123); transform-origin: 172.145px 223.17px;" id="elcsmfch2sgd" class="animable"></polygon><path d="M135.84,170q-3.89,7.41-8.08,14.65c-1.37,2.43-2.81,4.82-4.21,7.23l-2.15,3.6-.54.9c-.27.43-.57.94-.84,1.28s-.54.75-.8,1.06-.54.66-.8.95a74.52,74.52,0,0,1-6.44,6.22c-2.19,1.87-4.38,3.69-6.64,5.42-4.47,3.49-9.06,6.74-13.82,9.84l-3.43-4.32,11.85-11.67c1.94-2,3.9-3.88,5.75-5.86a70.18,70.18,0,0,0,5.13-5.88q.29-.36.51-.69c.17-.24.29-.44.41-.64a4.7,4.7,0,0,0,.28-.5l.46-.93,1.85-3.77c1.27-2.49,2.51-5,3.8-7.47q3.83-7.47,8-14.77Z" style="fill: rgb(228, 137, 123); transform-origin: 111.965px 192.9px;" id="els3ib9ferc8h" class="animable"></path><path d="M163.91,136.22c-.13.58.08,1.13.45,1.23s.78-.3.91-.88-.09-1.13-.46-1.23S164,135.64,163.91,136.22Z" style="fill: rgb(38, 50, 56); transform-origin: 164.589px 136.395px;" id="elwt8xjz2kt5i" class="animable"></path><path d="M163.93,137.34a22.24,22.24,0,0,0,1.7,5.65,3.39,3.39,0,0,1-2.86-.17Z" style="fill: rgb(222, 87, 83); transform-origin: 164.2px 140.284px;" id="elrenrm3pzvs8" class="animable"></path><path d="M165.44,132.7a.36.36,0,0,1-.2-.06,2.67,2.67,0,0,0-2.48-.16.36.36,0,0,1-.46-.19.36.36,0,0,1,.19-.46,3.41,3.41,0,0,1,3.15.24.34.34,0,0,1,.09.48A.35.35,0,0,1,165.44,132.7Z" style="fill: rgb(38, 50, 56); transform-origin: 164.034px 132.127px;" id="el8d4jdlf0tuo" class="animable"></path><path d="M143.68,138.43c1.26,5.38,2.69,15.22-.93,18.81,0,0,1.68,5.45,11.67,5.45,11,0,5-5.45,5-5.45-6.05-1.43-6.07-5.88-5.19-10.05Z" style="fill: rgb(228, 137, 123); transform-origin: 151.902px 150.56px;" id="eln3rooz3a8go" class="animable"></path><path d="M141.39,159.11c-.86-1.72-1.8-3.7,0-4.32,1.94-.68,12.71-1.37,16.48-.1a4,4,0,0,1,2.86,4.78Z" style="fill: rgb(90, 233, 130); transform-origin: 150.6px 156.725px;" id="eln7xe57amoeh" class="animable"></path><g id="el0nfgg9szwcm"><path d="M141.39,159.11c-.86-1.72-1.8-3.7,0-4.32,1.94-.68,12.71-1.37,16.48-.1a4,4,0,0,1,2.86,4.78Z" style="fill: rgb(250, 250, 250); opacity: 0.6; transform-origin: 150.6px 156.725px;" class="animable"></path></g><path d="M127,410a9.34,9.34,0,0,1-1.92-.21.16.16,0,0,1-.13-.13.18.18,0,0,1,.07-.18c.08-.06,2-1.44,3.12-1.2a.83.83,0,0,1,.58.41.69.69,0,0,1,0,.83C128.48,409.91,127.75,410,127,410Zm-1.43-.46c1.1.18,2.6.18,2.9-.23,0,0,.12-.16-.05-.45a.49.49,0,0,0-.35-.24A4.59,4.59,0,0,0,125.57,409.56Z" style="fill: rgb(250, 250, 250); transform-origin: 126.903px 409.126px;" id="el7nzr586irlo" class="animable"></path><path d="M125.12,409.82l-.09,0a.16.16,0,0,1-.08-.15c0-.09.09-2.21.92-2.91a.93.93,0,0,1,.74-.23.58.58,0,0,1,.57.47c.16.82-1.24,2.42-2,2.83Zm1.37-3a.6.6,0,0,0-.39.15,4.06,4.06,0,0,0-.78,2.31c.72-.57,1.61-1.78,1.52-2.26,0-.05,0-.17-.27-.2Z" style="fill: rgb(250, 250, 250); transform-origin: 126.071px 408.176px;" id="elu0x4lc72dq" class="animable"></path><path d="M171.12,410a12.3,12.3,0,0,1-2.26-.21.17.17,0,0,1-.14-.14.18.18,0,0,1,.08-.18c.37-.21,3.63-2.08,4.42-.79a.67.67,0,0,1,0,.77C173,409.89,172.06,410,171.12,410Zm-1.71-.47c1.38.2,3.24.17,3.56-.28,0,0,.1-.14-.05-.39C172.48,408.15,170.5,409,169.41,409.55Z" style="fill: rgb(250, 250, 250); transform-origin: 171.03px 409.115px;" id="eldagvjf58uop" class="animable"></path><path d="M168.89,409.82a.19.19,0,0,1-.1,0,.17.17,0,0,1-.07-.16c0-.08.12-2.06,1-2.83a1.2,1.2,0,0,1,1-.3c.49.05.63.3.66.5.14.85-1.53,2.4-2.41,2.8Zm1.68-3a.87.87,0,0,0-.6.23,3.88,3.88,0,0,0-.87,2.27c.88-.54,2-1.77,1.93-2.28,0-.05,0-.18-.36-.22Z" style="fill: rgb(250, 250, 250); transform-origin: 170.053px 408.173px;" id="el34xn0311rgu" class="animable"></path><polygon points="160.81 409.64 168.16 409.64 168.23 392.63 160.89 392.63 160.81 409.64" style="fill: rgb(228, 137, 123); transform-origin: 164.52px 401.135px;" id="eloe0be15lc8" class="animable"></polygon><polygon points="116.7 409.64 124.05 409.64 127.09 392.63 119.74 392.63 116.7 409.64" style="fill: rgb(228, 137, 123); transform-origin: 121.895px 401.135px;" id="elbk4u22ert1e" class="animable"></polygon><path d="M124.54,408.79h-8.25a.61.61,0,0,0-.61.51l-1.2,6.53a1.13,1.13,0,0,0,1.13,1.3c2.88-.05,4.27-.22,7.9-.22,2.23,0,6.84.24,9.93.24s3.36-3,2.09-3.33c-5.71-1.24-7.91-2.95-9.78-4.57A1.83,1.83,0,0,0,124.54,408.79Z" style="fill: rgb(38, 50, 56); transform-origin: 125.355px 412.97px;" id="elfy4844red7s" class="animable"></path><path d="M168.08,408.79h-8a.61.61,0,0,0-.61.51l-1.2,6.53a1.11,1.11,0,0,0,1.11,1.3c2.89-.05,7.06-.22,10.7-.22,4.26,0,7.94.24,12.93.24,3,0,3.73-3,2.46-3.33-5.8-1.26-10.5-1.39-15.58-4.45A3.46,3.46,0,0,0,168.08,408.79Z" style="fill: rgb(38, 50, 56); transform-origin: 172.16px 412.97px;" id="el2owqoydgrr" class="animable"></path><path d="M128.74,158.9c-6.83,1.58-14,20.35-14,20.35l14.19,9.48a110.51,110.51,0,0,0,8.54-15.53C141.22,164.61,135.71,157.29,128.74,158.9Z" style="fill: rgb(90, 233, 130); transform-origin: 126.712px 173.703px;" id="elir1wbo8nwp" class="animable"></path><g id="elppn226dg91b"><path d="M128.74,158.9c-6.83,1.58-14,20.35-14,20.35l14.19,9.48a110.51,110.51,0,0,0,8.54-15.53C141.22,164.61,135.71,157.29,128.74,158.9Z" style="opacity: 0.7; transform-origin: 126.712px 173.703px;" class="animable"></path></g><path d="M134.13,170.87l-5.87,17.41.67.45s2.68-4,5.53-9.33Z" style="fill: rgb(90, 233, 130); transform-origin: 131.36px 179.8px;" id="elsb726mb1b5" class="animable"></path><g id="eltwpbdqav35p"><path d="M134.13,170.87l-5.87,17.41.67.45s2.68-4,5.53-9.33Z" style="opacity: 0.8; transform-origin: 131.36px 179.8px;" class="animable"></path></g><path d="M174.57,191.72c-.06,8.2-.55,18.4-1.77,31.06H133.5c-.51-6,2.15-35.46-4.76-63.88a101.07,101.07,0,0,1,13.09-1.66,145.28,145.28,0,0,1,16.7,0,74.84,74.84,0,0,1,11.37,2s3.36,3.64,4.38,20.71C174.48,183.36,174.59,187.24,174.57,191.72Z" style="fill: rgb(90, 233, 130); transform-origin: 151.656px 189.89px;" id="elityx4kdd11s" class="animable"></path><g id="elwfwki45abl"><path d="M174.57,191.72c-.06,8.2-.55,18.4-1.77,31.06H133.5c-.51-6,2.15-35.46-4.76-63.88a101.07,101.07,0,0,1,13.09-1.66,145.28,145.28,0,0,1,16.7,0,74.84,74.84,0,0,1,11.37,2s3.36,3.64,4.38,20.71C174.48,183.36,174.59,187.24,174.57,191.72Z" style="opacity: 0.7; transform-origin: 151.656px 189.89px;" class="animable"></path></g><path d="M174.57,191.72c-2.38-4.34-6.7-13.05-6.09-18l5.8,6.28C174.48,183.36,174.59,187.24,174.57,191.72Z" style="fill: rgb(90, 233, 130); transform-origin: 171.497px 182.72px;" id="elepnp0x7prw5" class="animable"></path><g id="elb3tpzja8df"><path d="M174.57,191.72c-2.38-4.34-6.7-13.05-6.09-18l5.8,6.28C174.48,183.36,174.59,187.24,174.57,191.72Z" style="opacity: 0.8; transform-origin: 171.497px 182.72px;" class="animable"></path></g><path d="M162.2,165.92c-.62,7,15.25,23.84,15.25,23.84l12.72-10.36a82,82,0,0,0-11.89-15.5C170.84,156.71,162.9,158.08,162.2,165.92Z" style="fill: rgb(90, 233, 130); transform-origin: 176.176px 174.481px;" id="elzmw57mx1gvr" class="animable"></path><g id="el8gphig6qwhu"><path d="M162.2,165.92c-.62,7,15.25,23.84,15.25,23.84l12.72-10.36a82,82,0,0,0-11.89-15.5C170.84,156.71,162.9,158.08,162.2,165.92Z" style="opacity: 0.7; transform-origin: 176.176px 174.481px;" class="animable"></path></g><polygon points="168.23 392.64 168.19 401.4 160.85 401.4 160.88 392.64 168.23 392.64" style="fill: rgb(206, 111, 100); transform-origin: 164.54px 397.02px;" id="eldsxfavl58i" class="animable"></polygon><polygon points="119.74 392.64 127.09 392.64 125.52 401.4 118.17 401.4 119.74 392.64" style="fill: rgb(206, 111, 100); transform-origin: 122.63px 397.02px;" id="elk86fka41a" class="animable"></polygon><path d="M145,130.15c-1.07,7.24-2.06,11.4.72,16a9.49,9.49,0,0,0,16.79-.89c2.87-6,4.15-16.84-2.16-21.42A9.58,9.58,0,0,0,145,130.15Z" style="fill: rgb(228, 137, 123); transform-origin: 154.397px 136.32px;" id="eldnzangq1saq" class="animable"></path><path d="M166.75,126.72a18.26,18.26,0,0,1-7,2.15c-1.83,8.37-6.7,18-14.58,15.23-3-1-6-8.27-6.31-14.72-.52.63-.87,1.45-1.14,1.79a16.28,16.28,0,0,1,.94-8.5c2.18-6.18,3.63-2.08,6-5.83,1.53-2.48,4.25-3.76,9-3.92-1.33.69-1.58,1.8.39,1.64s10.38-.62,15.28,2.69c-3.31.75-1.29,6,3.13,3.2C170.85,123.06,168.85,125.54,166.75,126.72Z" style="fill: rgb(38, 50, 56); transform-origin: 154.992px 128.753px;" id="elmec64wei26" class="animable"></path><path d="M154.09,134.63a8.62,8.62,0,0,0,1.76,5.09c1.49,1.92,3.2,1,3.61-1.16.36-1.92,0-5.24-1.86-6.4S154.08,132.43,154.09,134.63Z" style="fill: rgb(228, 137, 123); transform-origin: 156.837px 136.257px;" id="elj292t54pzzp" class="animable"></path><path d="M145.13,117.62a6.13,6.13,0,0,1-4.89-3S140.11,120.48,145.13,117.62Z" style="fill: rgb(30, 42, 76); transform-origin: 142.685px 116.513px;" id="elaqw8lol5qnk" class="animable"></path><path d="M158.85,222.78s-6.16,56.14-9.93,77.17c-4.12,23-20,99.76-20,99.76H115.42S125,324.84,127,302c2.15-24.75,6.54-79.26,6.54-79.26Z" style="fill: rgb(90, 233, 130); transform-origin: 137.135px 311.225px;" id="ellk8sbm4lfi" class="animable"></path><g id="el63hgfc5po4"><path d="M158.85,222.78s-6.16,56.14-9.93,77.17c-4.12,23-20,99.76-20,99.76H115.42S125,324.84,127,302c2.15-24.75,6.54-79.26,6.54-79.26Z" style="fill: rgb(250, 250, 250); opacity: 0.6; transform-origin: 137.135px 311.225px;" class="animable"></path></g><path d="M130.83,394.75c.06,0-1.19,5.17-1.19,5.17H114.51l.1-4.61Z" style="fill: rgb(90, 233, 130); transform-origin: 122.671px 397.335px;" id="el3h6lptx8abp" class="animable"></path><g id="el0v2jc5whntq8"><path d="M130.83,394.75c.06,0-1.19,5.17-1.19,5.17H114.51l.1-4.61Z" style="fill: rgb(250, 250, 250); opacity: 0.1; transform-origin: 122.671px 397.335px;" class="animable"></path></g><path d="M154.36,242.78c-9.57,1.89-7.16,37.84-5.29,56.33,2.28-13.07,5.38-38.22,7.47-56.07A3.34,3.34,0,0,0,154.36,242.78Z" style="fill: rgb(90, 233, 130); transform-origin: 151.947px 270.906px;" id="elga8jiz7r95" class="animable"></path><g id="el8d8yel2w2hl"><path d="M154.36,242.78c-9.57,1.89-7.16,37.84-5.29,56.33,2.28-13.07,5.38-38.22,7.47-56.07A3.34,3.34,0,0,0,154.36,242.78Z" style="fill: rgb(250, 250, 250); opacity: 0.4; transform-origin: 151.947px 270.906px;" class="animable"></path></g><path d="M172.79,222.78s3.14,54.92,3.2,77.33c.07,23.3-5.12,99.6-5.12,99.6H158.42s-3.35-74.94-4.79-97.82c-1.56-24.95-6.67-79.11-6.67-79.11Z" style="fill: rgb(90, 233, 130); transform-origin: 161.475px 311.245px;" id="el8baysin49u4" class="animable"></path><g id="elndusakxu09n"><path d="M172.79,222.78s3.14,54.92,3.2,77.33c.07,23.3-5.12,99.6-5.12,99.6H158.42s-3.35-74.94-4.79-97.82c-1.56-24.95-6.67-79.11-6.67-79.11Z" style="fill: rgb(250, 250, 250); opacity: 0.6; transform-origin: 161.475px 311.245px;" class="animable"></path></g><path d="M175.8,215.72l-3.49.28a1.92,1.92,0,0,0-1.68,2.46l1.44,4.85a2.56,2.56,0,0,0,4,1.28,13.09,13.09,0,0,0,3.73-6.21Z" style="fill: rgb(228, 137, 123); transform-origin: 175.175px 220.418px;" id="el28fd9yvyta1h" class="animable"></path><path d="M167.92,390.77h0a.14.14,0,0,1-.12-.14c1.38-21.11,4.58-72.2,4.52-90.52,0-18.75-2.28-60.69-3-73.1a.12.12,0,0,1,.12-.13.13.13,0,0,1,.13.12c.68,12.41,2.91,54.35,3,73.11.06,18.33-3.14,69.42-4.52,90.54A.12.12,0,0,1,167.92,390.77Z" style="fill: rgb(90, 233, 130); transform-origin: 170.185px 308.825px;" id="elwfbrz6d7vmb" class="animable"></path><g id="elvgjh3yo0be"><path d="M167.92,390.77h0a.14.14,0,0,1-.12-.14c1.38-21.11,4.58-72.2,4.52-90.52,0-18.75-2.28-60.69-3-73.1a.12.12,0,0,1,.12-.13.13.13,0,0,1,.13.12c.68,12.41,2.91,54.35,3,73.11.06,18.33-3.14,69.42-4.52,90.54A.12.12,0,0,1,167.92,390.77Z" style="fill: rgb(250, 250, 250); opacity: 0.3; transform-origin: 170.185px 308.825px;" class="animable"></path></g><path d="M173.07,394.75c.06,0-.5,5.17-.5,5.17H157.43l-.59-4.61Z" style="fill: rgb(90, 233, 130); transform-origin: 164.957px 397.335px;" id="ellwc3gkd274q" class="animable"></path><g id="el8f6io25bej9"><path d="M173.07,394.75c.06,0-.5,5.17-.5,5.17H157.43l-.59-4.61Z" style="fill: rgb(250, 250, 250); opacity: 0.1; transform-origin: 164.957px 397.335px;" class="animable"></path></g></g><defs>     <filter id="active" height="200%">         <feMorphology in="SourceAlpha" result="DILATED" operator="dilate" radius="2"></feMorphology>                <feFlood flood-color="#32DFEC" flood-opacity="1" result="PINK"></feFlood>        <feComposite in="PINK" in2="DILATED" operator="in" result="OUTLINE"></feComposite>        <feMerge>            <feMergeNode in="OUTLINE"></feMergeNode>            <feMergeNode in="SourceGraphic"></feMergeNode>        </feMerge>    </filter>    <filter id="hover" height="200%">        <feMorphology in="SourceAlpha" result="DILATED" operator="dilate" radius="2"></feMorphology>                <feFlood flood-color="#ff0000" flood-opacity="0.5" result="PINK"></feFlood>        <feComposite in="PINK" in2="DILATED" operator="in" result="OUTLINE"></feComposite>        <feMerge>            <feMergeNode in="OUTLINE"></feMergeNode>            <feMergeNode in="SourceGraphic"></feMergeNode>        </feMerge>            <feColorMatrix type="matrix" values="0   0   0   0   0                0   1   0   0   0                0   0   0   0   0                0   0   0   1   0 "></feColorMatrix>    </filter></defs></svg>